<svg width="156" height="62" viewBox="0 0 156 62" fill="none" xmlns="http://www.w3.org/2000/svg">
<path d="M50.9924 52.8788C52.6849 52.8788 53.7888 51.8485 53.7888 49.6409V20.279C53.7888 15.7901 55.1134 15.3485 56.2172 15.3485C57.3946 15.3485 58.2777 16.3788 58.2777 19.2487V49.6409C58.2777 51.8485 59.2343 52.8788 61.0741 52.8788C62.8402 52.8788 63.8704 51.8485 63.8704 49.6409V19.2487C63.8704 13.7296 62.2515 10.8596 58.4249 10.8596C55.6285 10.8596 53.9359 12.7729 53.7888 16.8203L53.6416 13.8032C53.568 11.9634 52.5378 11.0068 50.8452 11.0068C49.1527 11.0068 48.1224 12.037 48.1224 14.2447V49.6409C48.1224 51.8485 49.1527 52.8788 50.9924 52.8788Z" fill="#1E403B"/>
<path d="M76.3955 53.026C81.1051 53.026 84.2694 49.9352 84.2694 43.2387V20.6469C84.2694 14.0239 81.1787 10.786 76.3955 10.786C71.7594 10.786 68.5215 13.8768 68.5215 20.6469V43.2387C68.5215 49.8616 71.6858 53.026 76.3955 53.026ZM76.3955 48.6106C75.0709 48.6106 74.1878 47.7276 74.1878 44.8576V19.1016C74.1878 16.2316 75.0709 15.2013 76.3955 15.2013C77.8672 15.2013 78.6767 16.2316 78.6767 19.1016V44.8576C78.6767 47.5068 77.9408 48.6106 76.3955 48.6106Z" fill="#1E403B"/>
<path d="M101.816 11.0068C100.123 11.0068 99.093 11.9634 99.0194 13.8032L98.8722 16.8203C98.6514 12.9937 96.9589 10.8596 94.1625 10.8596C90.4095 10.8596 88.6434 13.7296 88.6434 19.2487V43.4594C88.6434 48.9786 90.4095 51.8485 94.1625 51.8485C96.8117 51.8485 98.4307 50.0824 98.7986 46.5502V50.7447C98.7986 54.3506 97.6948 56.411 94.0889 56.411H93.1323C91.0718 56.411 90.3359 57.4413 90.3359 58.8395C90.3359 60.1641 91.3662 61.4887 94.3097 61.4887H94.4569C101.006 61.4887 104.465 57.7356 104.465 49.9352V14.2447C104.465 12.037 103.435 11.0068 101.816 11.0068ZM96.4438 47.5804C95.2664 47.5804 94.3097 46.5501 94.3097 43.6802V19.2487C94.3097 16.3788 95.2664 15.3485 96.4438 15.3485C97.474 15.3485 98.7986 15.7901 98.7986 20.279V42.6499C98.7986 47.1389 97.474 47.5804 96.4438 47.5804Z" fill="#1E403B"/>
<path d="M122.081 11.0068C120.389 11.0068 119.359 11.9634 119.285 13.8032L119.138 16.8203C118.917 12.9937 117.225 10.8596 114.428 10.8596C110.675 10.8596 108.909 13.7296 108.909 19.2487V43.4594C108.909 48.9786 110.675 51.8485 114.428 51.8485C117.077 51.8485 118.696 50.0824 119.064 46.5502V50.7447C119.064 54.3506 117.96 56.411 114.355 56.411H113.398C111.337 56.411 110.602 57.4413 110.602 58.8395C110.602 60.1641 111.632 61.4887 114.575 61.4887H114.723C121.272 61.4887 124.731 57.7356 124.731 49.9352V14.2447C124.731 12.037 123.7 11.0068 122.081 11.0068ZM116.709 47.5804C115.532 47.5804 114.575 46.5501 114.575 43.6802V19.2487C114.575 16.3788 115.532 15.3485 116.709 15.3485C117.74 15.3485 119.064 15.7901 119.064 20.279V42.6499C119.064 47.1389 117.74 47.5804 116.709 47.5804Z" fill="#1E403B"/>
<path d="M132.486 7.91607C134.252 7.91607 135.283 6.88583 135.283 5.11969V3.27998C135.283 1.44025 134.179 0.336426 132.486 0.336426C130.646 0.336426 129.616 1.44025 129.616 3.27998V5.11969C129.616 6.88583 130.646 7.91607 132.486 7.91607ZM132.486 52.8788C134.252 52.8788 135.283 51.8485 135.283 49.6409V14.2447C135.283 12.037 134.179 11.0068 132.486 11.0068C130.646 11.0068 129.616 12.037 129.616 14.2447V49.6409C129.616 51.8485 130.646 52.8788 132.486 52.8788Z" fill="#1E403B"/>
<path d="M143.122 52.8788C144.815 52.8788 145.918 51.8485 145.918 49.6409V20.279C145.918 15.7901 147.243 15.3485 148.347 15.3485C149.524 15.3485 150.407 16.3788 150.407 19.2487V49.6409C150.407 51.8485 151.364 52.8788 153.204 52.8788C154.97 52.8788 156 51.8485 156 49.6409V19.2487C156 13.7296 154.381 10.8596 150.554 10.8596C147.758 10.8596 146.066 12.7729 145.918 16.8203L145.771 13.8032C145.698 11.9634 144.667 11.0068 142.975 11.0068C141.282 11.0068 140.252 12.037 140.252 14.2447V49.6409C140.252 51.8485 141.282 52.8788 143.122 52.8788Z" fill="#1E403B"/>
<path fill-rule="evenodd" clip-rule="evenodd" d="M14.312 38.8505V13.4175C14.312 8.45515 18.3348 4.43234 23.2972 4.43234C28.2596 4.43234 32.2824 8.45515 32.2824 13.4176V38.8505C32.2824 43.8129 28.2596 47.8357 23.2972 47.8357C18.3348 47.8357 14.312 43.8129 14.312 38.8505ZM23.2972 0.292969C30.5457 0.292969 36.4218 6.16905 36.4218 13.4176V38.8505C36.4218 46.099 30.5457 51.9751 23.2972 51.9751C16.0487 51.9751 10.1727 46.099 10.1727 38.8505V13.4175C10.1727 6.16904 16.0487 0.292969 23.2972 0.292969Z" fill="#1E403B"/>
<path fill-rule="evenodd" clip-rule="evenodd" d="M4.13936 48.0158V22.5828C4.13936 17.6204 8.16218 13.5976 13.1246 13.5976C18.087 13.5976 22.1098 17.6204 22.1098 22.5828V48.0158C22.1098 52.9782 18.087 57.001 13.1246 57.001C8.16218 57.001 4.13936 52.9782 4.13936 48.0158ZM13.1246 9.45825C20.3731 9.45825 26.2491 15.3343 26.2491 22.5828V48.0158C26.2491 55.2643 20.3731 61.1404 13.1246 61.1404C5.87607 61.1404 -4.32712e-06 55.2643 -4.32712e-06 48.0158V22.5828C-4.32712e-06 15.3343 5.87607 9.45825 13.1246 9.45825Z" fill="#1E403B"/>
<path d="M12.214 20.346C10.9872 20.6747 10.2592 21.9357 10.5879 23.1625V23.1625C10.9166 24.3892 12.1776 25.1173 13.4044 24.7885L22.7675 22.2797C23.9943 21.951 24.7223 20.69 24.3936 19.4632V19.4632C24.0649 18.2364 22.8039 17.5084 21.5771 17.8371L12.214 20.346Z" fill="#1E403B"/>
<path d="M13.131 39.5454C11.9042 39.8741 11.1761 41.1351 11.5049 42.3619V42.3619C11.8336 43.5887 13.0946 44.3167 14.3213 43.988L23.5559 41.5136C24.7827 41.1849 25.5107 39.9239 25.182 38.6971V38.6971C24.8533 37.4704 23.5923 36.7423 22.3655 37.071L13.131 39.5454Z" fill="#1E403B"/>
<path d="M12.1646 29.9986C11.0205 30.3052 10.3595 31.5482 10.6882 32.775V32.775C11.0169 34.0018 12.2109 34.7478 13.3549 34.4412L24.1777 31.5413C25.3217 31.2347 25.9827 29.9917 25.654 28.7649V28.7649C25.3253 27.5381 24.1314 26.7922 22.9873 27.0987L12.1646 29.9986Z" fill="#1E403B"/>
</svg>
